Coordinates
version=1
nRows=32
nColumns=12
inDegrees=yes

Units are S.I. units (second, meters, Newtons, ...)
Angles are in degrees

endheader
time	SC_y	SC_z	SC_x	AC_y	AC_z	AC_x	GH_y	GH_z	GH_yy	EL_x	PS_y
       0.0              -13.36          16.01          75.37          43.68          2.695         -10.83         -65.44          -16.9         -16.42          122.4          46.81
   0.04896              -13.36          16.01          75.36          43.68          2.695         -10.83         -65.43         -16.89         -16.42          122.4          46.82
   0.09792              -13.36          16.01          75.35          43.69          2.695         -10.82         -65.42         -16.89         -16.42          122.4          46.83
    0.1469              -13.36           16.0          75.33          43.69          2.695         -10.82         -65.41         -16.88         -16.42          122.3          46.85
    0.1958              -13.37           16.0          75.32          43.69          2.694         -10.81          -65.4         -16.88         -16.42          122.3          46.86
    0.2448              -13.37           16.0          75.31           43.7          2.694         -10.81         -65.39         -16.88         -16.42          122.3          46.88
    0.2938              -13.37           16.0          75.29           43.7          2.694          -10.8         -65.38         -16.87         -16.42          122.3          46.89
    0.3427              -13.37          15.99          75.28          43.71          2.693         -10.79         -65.37         -16.87         -16.42          122.3          46.91
    0.3917              -13.38          15.99          75.26          43.71          2.693         -10.79         -65.35         -16.86         -16.42          122.3          46.93
    0.4406              -13.38          15.99          75.24          43.72          2.692         -10.78         -65.34         -16.86         -16.42          122.3          46.95
    0.4896              -13.38          15.98          75.22          43.72          2.692         -10.77         -65.32         -16.85         -16.42          122.3          46.97
    0.5386              -13.39          15.98           75.2          43.73          2.691         -10.76          -65.3         -16.85         -16.42          122.3          46.99
    0.5875              -13.39          15.97          75.18          43.73          2.691         -10.75         -65.29         -16.84         -16.42          122.2          47.01
    0.6365               -13.4          15.97          75.15          43.74           2.69         -10.74         -65.27         -16.83         -16.42          122.2          47.04
    0.6855               -13.4          15.97          75.13          43.75           2.69         -10.73         -65.24         -16.82         -16.42          122.2          47.07
    0.7344               -13.4          15.96           75.1          43.76          2.689         -10.72         -65.22         -16.81         -16.42          122.2           47.1
    0.7834              -13.41          15.95          75.07          43.77          2.688         -10.71         -65.19         -16.81         -16.43          122.2          47.13
    0.8323              -13.42          15.95          75.03          43.78          2.688          -10.7         -65.17          -16.8         -16.43          122.1          47.17
    0.8813              -13.42          15.94           75.0          43.79          2.687         -10.68         -65.14         -16.78         -16.43          122.1          47.21
    0.9303              -13.43          15.93          74.95           43.8          2.686         -10.66          -65.1         -16.77         -16.43          122.1          47.25
    0.9792              -13.44          15.93          74.91          43.81          2.685         -10.65         -65.07         -16.76         -16.43          122.1           47.3
     1.028              -13.45          15.92          74.86          43.83          2.683         -10.63         -65.02         -16.74         -16.43          122.0          47.35
     1.077              -13.46          15.91          74.81          43.84          2.682          -10.6         -64.98         -16.73         -16.43          122.0          47.41
     1.126              -13.47          15.89          74.75          43.86          2.681         -10.58         -64.93         -16.71         -16.43          122.0          47.47
     1.175              -13.48          15.88          74.68          43.88          2.679         -10.55         -64.87         -16.69         -16.43          121.9          47.55
     1.224              -13.49          15.87           74.6           43.9          2.677         -10.52         -64.81         -16.67         -16.43          121.9          47.63
     1.273              -13.51          15.85          74.52          43.92          2.675         -10.49         -64.74         -16.64         -16.43          121.8          47.72
     1.322              -13.52          15.84          74.43          43.95          2.673         -10.45         -64.67         -16.61         -16.44          121.8          47.82
     1.371              -13.54          15.82          74.32          43.98          2.671          -10.4         -64.58         -16.58         -16.44          121.7          47.93
      1.42              -13.56          15.79           74.2          44.01          2.668         -10.36         -64.48         -16.55         -16.44          121.6          48.06
     1.469              -13.59          15.77          74.06          44.05          2.665          -10.3         -64.37         -16.51         -16.44          121.5          48.21
     1.518              -13.61          15.74           73.9           44.1          2.661         -10.23         -64.23         -16.46         -16.44          121.4          48.37
